# xmcd
#
# Track frame offsets:
#	150
#	18944
#	38884
#	54904
#	75001
#	99440
#	122803
#	140221
#	166706
#	193964
#
# Disc length: 2839 seconds
#
# Revision: 1
# Processed by: cddbd v1.5.2PL0 Copyright (c) Steve Scherf et al.
# Submitted via: audiograbber 1.83.01
#
DISCID=770b150a
DTITLE=John Starnes - Treasures
DYEAR=1900
DGENRE=Gospel
TTITLE0=Who am I
TTITLE1=Sweet beaulah land
TTITLE2=My Tribute
TTITLE3=The Saviour is waiting
TTITLE4=It is finished
TTITLE5=There is a river
TTITLE6=Because He lives
TTITLE7=Holy ground
TTITLE8=I bowed on my knees and cried holy
TTITLE9=Jesus is the sweetest name I know - There's something about that name
EXTD=
EXTT0=
EXTT1=
EXTT2=
EXTT3=
EXTT4=
EXTT5=
EXTT6=
EXTT7=
EXTT8=
EXTT9=
PLAYORDER=
